<?xml version="1.0" encoding="UTF-8"?>
<svg version="1.1" id="Layer_1" xmlns="http://www.w3.org/2000/svg" xmlns:xlink="http://www.w3.org/1999/xlink" x="0px" y="0px"
	 viewBox="0 0 70 53" style="enable-background:new 0 0 70 53;" xml:space="preserve" width="70" height="53">
  <defs>
    <style>
      .cls-1 {
        fill: #d04a02;
      }
    </style>
  </defs>
  <!-- Generator: Adobe Illustrator 28.7.0, SVG Export Plug-In . SVG Version: 1.2.0 Build 136)  -->
  <g>
    <g id="Layer_1">
      <g id="Layer_1-2" data-name="Layer_1">
        <g id="Layer_1-2">
          <path d="M51.8,33.5c-2.4.4-3.7,2.2-3.7,5.4s1.7,5.3,4.3,5.3,2.2-.4,4.6-1.6v2.6c-2.7,1.3-4.4,1.7-6.6,1.7s-4.1-.7-5.4-2-2.1-3.3-2.1-5.3c0-4.6,3.4-7.8,8.4-7.8s5.6,1.6,5.6,3.7-1.1,2.4-2.6,2.4-1.5-.2-2.3-.7v-3.9h0s-.2.2-.2.2ZM39.7,39.7c2.2-2.8,3-3.9,3-5.3s-1.1-2.4-2.5-2.4-1.7.4-2,.9v5.6l-3.6,4.9v-11h-3.4l-5.7,9.5v-9.5h-1.9l-5.2,1.3v1.4l2.8.3v11.7h3.7l5.4-9v9h4l5.5-7.1h0v-.2h-.1ZM7.2,35.3c.9,0,1.3-.2,1.7-.2,2.4,0,3.7,1.6,3.7,4.6s-1.6,5.3-4.6,5.3-.4,0-.8,0v-9.7h0ZM7.2,46.7c1,0,1.8.2,2.4.2,4.9,0,8-3.1,8-7.8s-2.3-6.9-5.4-6.9-2.3.3-5,1.8v-1.9h-1.5L0,33.8v1.4h2.3v16.2l-2.1.5v1.4h9.3v-1.4l-2.3-.5v-4.7h0Z"/>
        </g>
        <rect class="cls-1" x="37.8" y="0" width="32.2" height="30.4"/>
      </g>
    </g>
  </g>
</svg>