<?xml version="1.0" encoding="UTF-8"?>
<svg version="1.1" id="Layer_1" xmlns="http://www.w3.org/2000/svg" xmlns:xlink="http://www.w3.org/1999/xlink" x="0px" y="0px"
	 viewBox="0 0 72 55" style="enable-background:new 0 0 72 55;" xml:space="preserve" width="72" height="55">
  <defs>
    <style>
      .cls-1 {
        fill: #d04a02;
      }
    </style>
  </defs>
  <!-- Generator: Adobe Illustrator 28.7.0, SVG Export Plug-In . SVG Version: 1.2.0 Build 136)  -->
  <g>
    <g id="Layer_1">
      <g id="Layer_1-2" data-name="Layer_1">
        <g id="Layer_1-2">
          <g id="Layer_1-2-2" data-name="Layer_1-2">
            <path d="M53.3,2c-2.5.4-3.8,2.3-3.8,5.6s1.7,5.5,4.4,5.5,2.3-.4,4.7-1.6v2.7c-2.8,1.3-4.5,1.7-6.8,1.7s-4.2-.7-5.6-2.1-2.2-3.4-2.2-5.5c0-4.7,3.5-8,8.6-8s5.8,1.6,5.8,3.8-1.1,2.5-2.7,2.5-1.5-.2-2.4-.7V1.9h0ZM40.8,8.3c2.3-2.9,3.1-4,3.1-5.4s-1.1-2.5-2.6-2.5-1.7.4-2.1.9v5.8l-3.7,5V.8h-3.5l-5.9,9.8V.8h-2l-5.3,1.3v1.4l2.9.3v12h3.8l5.6-9.3v9.3h4.1l5.7-7.3h0v-.2h0ZM7.4,3.8c.9,0,1.3-.2,1.7-.2,2.5,0,3.8,1.6,3.8,4.7s-1.6,5.5-4.7,5.5-.4,0-.8,0V3.8h0ZM7.4,15.5c1,0,1.9.2,2.5.2,5,0,8.2-3.2,8.2-8S15.7.6,12.5.6s-2.4.3-5.1,1.9V.5h-1.5L0,2.3v1.4h2.4v16.7l-2.2.5v1.4h9.6v-1.4l-2.4-.5v-4.8h0Z"/>
          </g>
        </g>
        <rect class="cls-1" x="39.2" y="25" width="32.8" height="30.4"/>
      </g>
    </g>
  </g>
</svg>